<mxfile host="app.diagrams.net" modified="2023-05-25T10:10:17.581Z" agent="Mozilla/5.0 (X11; Linux x86_64; rv:109.0) Gecko/20100101 Firefox/113.0" etag="mTyTT2KONc70N3WLcpQK" version="21.3.3" type="github">
  <diagram name="Page-1" id="VukrD2N2YE7sBrP6nbqJ">
    <mxGraphModel dx="1026" dy="791" grid="1" gridSize="10" guides="1" tooltips="1" connect="1" arrows="1" fold="1" page="1" pageScale="1" pageWidth="827" pageHeight="1169" math="0" shadow="0">
      <root>
        <mxCell id="0" />
        <mxCell id="1" parent="0" />
      </root>
    </mxGraphModel>
  </diagram>
</mxfile>
